<svg width="811" height="170" viewBox="0 0 811 170" fill="none" xmlns="http://www.w3.org/2000/svg">
<path d="M85 163C128.078 163 163 128.078 163 85C163 41.922 128.078 7 85 7C41.922 7 7 41.922 7 85C7 128.078 41.922 163 85 163Z" stroke="white" stroke-width="14"/>
<path d="M85 112C99.912 112 112 99.912 112 85C112 70.088 99.912 58 85 58C70.088 58 58 70.088 58 85C58 99.912 70.088 112 85 112Z" fill="white"/>
<path d="M49 130C56.732 130 63 123.732 63 116C63 108.268 56.732 102 49 102C41.268 102 35 108.268 35 116C35 123.732 41.268 130 49 130Z" fill="white"/>
<path d="M39 98C46.732 98 53 91.732 53 84C53 76.268 46.732 70 39 70C31.268 70 25 76.268 25 84C25 91.732 31.268 98 39 98Z" fill="white"/>
<path d="M50 65C57.732 65 64 58.732 64 51C64 43.268 57.732 37 50 37C42.268 37 36 43.268 36 51C36 58.732 42.268 65 50 65Z" fill="white"/>
<path d="M83 53C90.732 53 97 46.732 97 39C97 31.268 90.732 25 83 25C75.268 25 69 31.268 69 39C69 46.732 75.268 53 83 53Z" fill="white"/>
<path d="M117 65C124.732 65 131 58.732 131 51C131 43.268 124.732 37 117 37C109.268 37 103 43.268 103 51C103 58.732 109.268 65 117 65Z" fill="white"/>
<path d="M131 98C138.732 98 145 91.732 145 84C145 76.268 138.732 70 131 70C123.268 70 117 76.268 117 84C117 91.732 123.268 98 131 98Z" fill="white"/>
<path d="M117 130C124.732 130 131 123.732 131 116C131 108.268 124.732 102 117 102C109.268 102 103 108.268 103 116C103 123.732 109.268 130 117 130Z" fill="white"/>
<path d="M83 145C90.732 145 97 138.732 97 131C97 123.268 90.732 117 83 117C75.268 117 69 123.268 69 131C69 138.732 75.268 145 83 145Z" fill="white"/>
<path d="M234.295 128H208.727L237.534 40.7271H269.92L298.727 128H273.159L254.068 64.761H253.386L234.295 128ZM229.523 93.5681H277.591V111.295H229.523V93.5681ZM307.133 40.7271H336.621L356.906 90.1591H357.928L378.212 40.7271H407.701V128H384.519V77.545H383.837L364.406 127.318H350.428L330.996 77.2051H330.315V128H307.133V40.7271ZM418.93 128V40.7271H481.827V59.8181H442.623V74.8181H478.589V93.9091H442.623V108.909H481.657V128H418.93ZM493.578 40.7271H523.067L543.351 90.1591H544.374L564.658 40.7271H594.146V128H570.964V77.545H570.283L550.851 127.318H536.874L517.442 77.2051H516.76V128H493.578V40.7271ZM629.068 40.7271V128H605.375V40.7271H629.068ZM636.717 40.7271H663.138L680.183 76.1821H680.865L697.911 40.7271H724.331L692.286 100.557V128H668.763V100.557L636.717 40.7271ZM745.819 128H720.251L749.058 40.7271H781.444L810.251 128H784.683L765.592 64.761H764.91L745.819 128ZM741.046 93.5681H789.114V111.295H741.046V93.5681Z" fill="white"/>
</svg>
